<svg width="143" height="25" viewBox="0 0 143 25" xmlns="http://www.w3.org/2000/svg">
    <g fill-rule="nonzero" fill="none">
        <path d="M48.423 8.144C45.761.451 38.15.025 37.368.004A13.94 13.94 0 0 0 27.34 3.948a17.973 17.973 0 0 0-2.843 3.556 17.923 17.923 0 0 0-2.836-3.556A13.954 13.954 0 0 0 11.626.004C10.847.025 3.234.45.58 8.144a11.754 11.754 0 0 0 .68 8.94c1.405 3.023 4.753 5.489 8.284 5.24a7.25 7.25 0 0 0 6.404-4.35 6.32 6.32 0 0 0-1.405-6.928 2.538 2.538 0 0 1-.435 1.896 2.772 2.772 0 0 1-3.402.924 2.279 2.279 0 0 1-1.48-2.5c.15-.924.77-1.702 1.635-2.047 1.548-.675 2.974-.332 4.37 1.006 2.279 2.569 2.546 6.461 3.632 9.415.767 2.432 1.984 4.545 4.644 5.152.326.074.659.11.992.108a4.26 4.26 0 0 0 .99-.108c2.664-.605 3.88-2.72 4.647-5.152 1.084-2.954 1.352-6.846 3.639-9.415 1.389-1.34 2.814-1.681 4.364-1.006a2.656 2.656 0 0 1 1.635 2.047 2.27 2.27 0 0 1-1.484 2.5 2.776 2.776 0 0 1-3.403-.924 2.533 2.533 0 0 1-.434-1.896 6.346 6.346 0 0 0-1.405 6.928 7.25 7.25 0 0 0 6.403 4.35c3.531.249 6.88-2.217 8.285-5.24a11.759 11.759 0 0 0 .688-8.94m-5.376 9.178a5.17 5.17 0 0 1-5.513 1.058 3.765 3.765 0 0 1-2.049-2.384c1.47 1.47 4.117 2.221 6.55-.357 0 0 2.272-2.122.983-6.119-.643-1.978-3.046-3.623-5.05-3.827a7.616 7.616 0 0 0-7.749 3.29c-2.3 3.576-2.589 7.554-4.255 11.53-.279.558-.847.91-1.468.91-.62 0-1.188-.352-1.468-.91-1.663-3.976-1.953-7.957-4.253-11.53a7.612 7.612 0 0 0-7.753-3.29c-1.997.204-4.405 1.849-5.05 3.826-1.288 3.998.984 6.12.984 6.12 2.431 2.578 5.079 1.826 6.555.356a3.791 3.791 0 0 1-2.055 2.384 5.17 5.17 0 0 1-5.513-1.057 7.743 7.743 0 0 1-1.8-8.256c1.146-3.42 4.581-5.137 7.316-5.353 3.234-.286 7.699 1.714 9.486 5.12.412.787 1.288 2.819 1.288 2.819h4.536s.868-2.032 1.287-2.82c1.779-3.407 6.243-5.402 9.478-5.119 2.737.216 6.17 1.933 7.312 5.353a7.728 7.728 0 0 1-1.8 8.256" fill="#A8A9AC"/>
        <path fill="#004587" d="M139 1h4v3h-4zM57.84 11.908V21h-4.71v-9.092L49 0h4.996l1.49 5.845L57.004 0H62zM66.987 20.62l-.175-.762C66.118 20.62 65.361 21 63.804 21c-1.66.036-2.838-1.485-2.803-3.317l.036-2.592c.071-4.216 5.807-2.935 5.807-6.085 0-.658-.034-1.21-.798-1.21-.723 0-.931.552-.931 1.21v1.279h-4.078V9.009c0-2.731 2.348-4.009 5.01-4.009C69.438 5 71 6.901 71 8.975V20.62h-4.013zm-.211-7.672c-.966.621-1.66.93-1.66 2.208v1.87c0 .895.245 1.243.835 1.243s.825-.347.825-1.244v-4.077zM83 16.933c0 2.515-.414 4.623-3.102 4.623-1.159.124-2.288-.429-2.935-1.436V25H73V5.342h3.963l-.028 1.614c.535-1.298 1.82-2.083 3.17-1.939C82.28 5.017 83 7.172 83 9.215v7.718zm-4.242-7.396c0-.719-.377-1.115-.894-1.115-.553 0-.929.43-.929 1.184v7.5c0 .718.376 1.114.893 1.114.554 0 .929-.394.929-1.146l.001-7.537zM86 5h4v16h-4zM99.603 21l-2.563-7.36-.608 1.154v6.203H92V0h4.432v6.529L99.255 0h4.396l-4.048 8.84L104 21zM113 9.646c-1.05-.388-3.833-.422-3.833 2.087V21H105V5.405h3.873l-.036 1.661c.867-1.393 2.465-2.187 4.128-2.051v4.632H113zM124 16.76c0 3.053-2.119 4.24-5 4.24-2.636 0-5-1.285-5-4.304v-7.15C114 6.633 115.773 5 119 5c2.64 0 5 1.078 5 4.582v4.025h-5.867v3.674c0 .623.274.972.868.972s.868-.35.868-.972v-2.253H124v1.732zm-4.2-8.05c0-.622-.278-.967-.833-.967-.588 0-.868.345-.868.967v2.084h1.735L119.8 8.71zM133.032 21.68v-1.6c-.374 1.385-1.617 1.92-3.103 1.92-2.45 0-2.929-2.135-2.929-4.122V10.27c0-2.488.583-4.654 3.034-4.654a3.477 3.477 0 0 1 2.997 1.42V1H137v20.684l-3.968-.005zm0-11.658c0-.71-.374-1.104-.929-1.066-.551 0-.934.391-.934 1.105l.037 7.461c0 .714.38 1.104.897 1.104.552 0 .929-.426.929-1.138v-7.466zM139 5h4v16h-4z"/>
    </g>
</svg>
